<?xml version="1.0" encoding="UTF-8" standalone="no"?><!DOCTYPE svg PUBLIC "-//W3C//DTD SVG 1.1//EN" "http://www.w3.org/Graphics/SVG/1.1/DTD/svg11.dtd"><svg width="100%" height="100%" viewBox="0 0 1024 1024" version="1.1" xmlns="http://www.w3.org/2000/svg" xmlns:xlink="http://www.w3.org/1999/xlink" xml:space="preserve" xmlns:serif="http://www.serif.com/" style="fill-rule:evenodd;clip-rule:evenodd;stroke-linejoin:round;stroke-miterlimit:2;"><g><g><path d="M667.05,360.944c4.91,2.848 10.983,2.919 16.115,0.234c5.039,-2.71 9.458,-7.889 9.942,-13.649l-0.048,-239.683c0.052,-37.824 -20.228,-57.197 -51.276,-69.621c-72.136,-28.864 -221.119,-47.055 -344.495,17.957c-18.88,9.949 -27.309,22.903 -30.403,41.58c-3.046,18.39 7.708,36.275 23.662,45.453l376.503,217.728Z" style="fill:url(#_Linear1);"/><path d="M693.107,219.952c-69.671,-66.985 -259.906,-120.865 -402.594,-76.714l377.079,218.064c5.223,2.716 11.032,2.38 16.056,-0.394c5.312,-2.933 9.276,-8.33 9.46,-13.762l-0.001,-127.193Z" style="fill:url(#_Linear2);"/></g><g><path d="M459.536,302.842c4.923,-2.826 8.024,-8.048 8.268,-13.834c0.176,-5.719 -2.096,-12.137 -6.84,-15.438l-207.527,-119.92c-32.72,-18.976 -59.642,-11.114 -85.937,9.546c-61.093,48.004 -151.407,167.881 -156.873,307.231c-0.836,21.324 6.159,35.106 20.781,47.132c14.397,11.841 35.262,11.482 51.193,2.264l376.934,-216.981Z" style="fill:url(#_Linear3);"/><path d="M350.515,209.718c-92.862,26.791 -234.72,164.519 -267.912,310.146l377.513,-217.312c4.965,-3.162 7.582,-8.36 7.695,-14.098c0.119,-6.067 -2.569,-12.2 -7.18,-15.078l-110.117,-63.659Z" style="fill:url(#_Linear4);"/></g><g><path d="M304.477,451.978c0.014,-5.676 -2.958,-10.972 -7.847,-14.078c-4.865,-3.012 -11.559,-4.253 -16.79,-1.795l-207.617,119.764c-32.794,18.848 -39.447,46.094 -34.701,79.197c11.026,76.91 69.686,215.062 187.633,289.471c18.049,11.386 33.482,12.219 51.208,5.569c17.453,-6.547 27.575,-24.797 27.557,-43.203l0.556,-434.925Z" style="fill:url(#_Linear5);"/><path d="M169.318,499.831c-23.229,93.816 25.118,285.533 134.639,387.091l0.559,-435.592c-0.256,-5.881 -3.449,-10.746 -8.361,-13.713c-5.195,-3.137 -11.85,-3.875 -16.648,-1.321l-110.189,63.534Z" style="fill:url(#_Linear6);"/></g><g><path d="M357.241,662.953c-4.908,-2.85 -10.981,-2.925 -16.115,-0.243c-5.041,2.707 -9.462,7.884 -9.95,13.643l-0.09,239.683c-0.074,37.824 20.196,57.209 51.236,69.65c72.119,28.906 221.093,47.181 344.506,-17.76c18.885,-9.938 27.323,-22.887 30.427,-41.563c3.056,-18.389 -7.687,-36.279 -23.636,-45.467l-376.379,-217.944Z" style="fill:url(#_Linear7);"/><path d="M331.103,803.931c69.632,67.025 259.837,121.014 402.551,76.945l-376.954,-218.28c-5.221,-2.719 -11.031,-2.386 -16.056,0.385c-5.314,2.93 -9.281,8.324 -9.468,13.757l-0.072,127.193Z" style="fill:url(#_Linear8);"/></g><g><path d="M564.464,721.674c-4.923,2.826 -8.024,8.048 -8.268,13.834c-0.176,5.719 2.096,12.137 6.84,15.438l207.527,119.92c32.72,18.976 59.642,11.114 85.937,-9.546c61.093,-48.004 151.407,-167.881 156.873,-307.231c0.836,-21.324 -6.159,-35.106 -20.781,-47.132c-14.397,-11.841 -35.262,-11.482 -51.193,-2.264l-376.934,216.981Z" style="fill:url(#_Linear9);"/><path d="M673.485,814.799c92.862,-26.791 234.72,-164.519 267.912,-310.146l-377.513,217.312c-4.965,3.162 -7.582,8.36 -7.695,14.098c-0.119,6.067 2.569,12.2 7.18,15.078l110.117,63.659Z" style="fill:url(#_Linear10);"/></g><g><path d="M719.756,571.253c-0.014,5.676 2.958,10.972 7.847,14.078c4.865,3.012 11.559,4.253 16.79,1.795l207.617,-119.764c32.794,-18.848 39.447,-46.094 34.701,-79.197c-11.026,-76.91 -69.686,-215.062 -187.633,-289.471c-18.049,-11.386 -33.482,-12.219 -51.208,-5.569c-17.453,6.547 -27.575,24.797 -27.557,43.203l-0.556,434.925Z" style="fill:url(#_Linear11);"/><path d="M854.915,523.4c23.229,-93.816 -25.118,-285.533 -134.639,-387.091l-0.559,435.592c0.256,5.881 3.449,10.746 8.361,13.713c5.195,3.137 11.85,3.875 16.648,1.321l110.189,-63.534Z" style="fill:url(#_Linear12);"/></g><ellipse cx="512" cy="512" rx="278" ry="278" style="fill:url(#_Radial13);"/></g><defs><linearGradient id="_Linear1" x1="0" y1="0" x2="1" y2="0" gradientUnits="userSpaceOnUse" gradientTransform="matrix(-399.631109,-87.059539,87.059539,-399.631109,680.33666,183.227564)"><stop offset="0" style="stop-color:#f0492d;stop-opacity:1"/><stop offset="0.05" style="stop-color:#f25931;stop-opacity:1"/><stop offset="0.11" style="stop-color:#f36934;stop-opacity:1"/><stop offset="0.28" style="stop-color:#f47035;stop-opacity:1"/><stop offset="0.62" style="stop-color:#f5882a;stop-opacity:1"/><stop offset="1" style="stop-color:#f9cb0c;stop-opacity:1"/></linearGradient><linearGradient id="_Linear2" x1="0" y1="0" x2="1" y2="0" gradientUnits="userSpaceOnUse" gradientTransform="matrix(-383.346428,-143.406147,143.406147,-383.346428,675.589934,273.90524)"><stop offset="0" style="stop-color:#d71f24;stop-opacity:1"/><stop offset="0.33" style="stop-color:#ea5c03;stop-opacity:1"/><stop offset="0.72" style="stop-color:#f19101;stop-opacity:1"/><stop offset="1" style="stop-color:#f4a900;stop-opacity:1"/></linearGradient><linearGradient id="_Linear3" x1="0" y1="0" x2="1" y2="0" gradientUnits="userSpaceOnUse" gradientTransform="matrix(-275.385061,302.403179,-302.403179,-275.385061,312.330475,202.392677)"><stop offset="0" style="stop-color:#a0cf34;stop-opacity:1"/><stop offset="1" style="stop-color:#38d2cc;stop-opacity:1"/></linearGradient><linearGradient id="_Linear4" x1="0" y1="0" x2="1" y2="0" gradientUnits="userSpaceOnUse" gradientTransform="matrix(-316.016079,260.10358,-260.10358,-316.016079,388.457951,251.886019)"><stop offset="0" style="stop-color:#327901;stop-opacity:1"/><stop offset="0.45" style="stop-color:#379e23;stop-opacity:1"/><stop offset="0.73" style="stop-color:#17ad71;stop-opacity:1"/><stop offset="1" style="stop-color:#0bb38d;stop-opacity:1"/></linearGradient><linearGradient id="_Linear5" x1="0" y1="0" x2="1" y2="0" gradientUnits="userSpaceOnUse" gradientTransform="matrix(124.196515,389.692036,-389.692036,124.196515,143.882369,529.23711)"><stop offset="0" style="stop-color:#5981cf;stop-opacity:1"/><stop offset="1" style="stop-color:#bd45d9;stop-opacity:1"/></linearGradient><linearGradient id="_Linear6" x1="0" y1="0" x2="1" y2="0" gradientUnits="userSpaceOnUse" gradientTransform="matrix(67.248478,403.729761,-403.729761,67.248478,224.808589,488.055406)"><stop offset="0" style="stop-color:#001b94;stop-opacity:1"/><stop offset="0.5" style="stop-color:#720bb8;stop-opacity:1"/><stop offset="1" style="stop-color:#9307c2;stop-opacity:1"/></linearGradient><linearGradient id="_Linear7" x1="0" y1="0" x2="1" y2="0" gradientUnits="userSpaceOnUse" gradientTransform="matrix(399.581549,87.288352,-87.288352,399.581549,343.852209,840.66186)"><stop offset="0" style="stop-color:#a23ed2;stop-opacity:1"/><stop offset="0.23" style="stop-color:#755dce;stop-opacity:1"/><stop offset="0.44" style="stop-color:#6569cd;stop-opacity:1"/><stop offset="0.69" style="stop-color:#5d72d1;stop-opacity:1"/><stop offset="1" style="stop-color:#4b89db;stop-opacity:1"/></linearGradient><linearGradient id="_Linear8" x1="0" y1="0" x2="1" y2="0" gradientUnits="userSpaceOnUse" gradientTransform="matrix(383.264603,143.625677,-143.625677,383.264603,348.650842,749.986839)"><stop offset="0" style="stop-color:#60109b;stop-opacity:1"/><stop offset="1" style="stop-color:#1956c1;stop-opacity:1"/></linearGradient><linearGradient id="_Linear9" x1="0" y1="0" x2="1" y2="0" gradientUnits="userSpaceOnUse" gradientTransform="matrix(275.385061,-302.403179,302.403179,275.385061,711.66951,822.123681)"><stop offset="0" style="stop-color:#3693d3;stop-opacity:1"/><stop offset="1" style="stop-color:#79def0;stop-opacity:1"/></linearGradient><linearGradient id="_Linear10" x1="0" y1="0" x2="1" y2="0" gradientUnits="userSpaceOnUse" gradientTransform="matrix(316.016079,-260.10358,260.10358,316.016079,635.542034,772.630339)"><stop offset="0" style="stop-color:#0f3d95;stop-opacity:1"/><stop offset="0.51" style="stop-color:#0d87c2;stop-opacity:1"/><stop offset="0.8" style="stop-color:#08a7d9;stop-opacity:1"/><stop offset="1" style="stop-color:#049fc9;stop-opacity:1"/></linearGradient><linearGradient id="_Linear11" x1="0" y1="0" x2="1" y2="0" gradientUnits="userSpaceOnUse" gradientTransform="matrix(-124.196515,-389.692036,389.692036,-124.196515,880.350633,493.993614)"><stop offset="0" style="stop-color:#e353b2;stop-opacity:1"/><stop offset="0.63" style="stop-color:#f44789;stop-opacity:1"/><stop offset="0.82" style="stop-color:#f55590;stop-opacity:1"/><stop offset="1" style="stop-color:#f97fa4;stop-opacity:1"/></linearGradient><linearGradient id="_Linear12" x1="0" y1="0" x2="1" y2="0" gradientUnits="userSpaceOnUse" gradientTransform="matrix(-67.248478,-403.729761,403.729761,-67.248478,799.424413,535.175317)"><stop offset="0" style="stop-color:#9b026f;stop-opacity:1"/><stop offset="0.66" style="stop-color:#e31c48;stop-opacity:1"/><stop offset="0.82" style="stop-color:#e8193a;stop-opacity:1"/><stop offset="1" style="stop-color:#f71114;stop-opacity:1"/></linearGradient><radialGradient id="_Radial13" cx="0" cy="0" r="1" gradientUnits="userSpaceOnUse" gradientTransform="matrix(556,0,0,555.999807,512,512)"><stop offset="0" style="stop-color:#fff;stop-opacity:0"/><stop offset="0.4" style="stop-color:#fff;stop-opacity:0.03"/><stop offset="0.52" style="stop-color:#fff;stop-opacity:0.12"/><stop offset="1" style="stop-color:#fff;stop-opacity:0"/></radialGradient></defs></svg>