<?xml version="1.0" encoding="UTF-8" standalone="no"?><!DOCTYPE svg PUBLIC "-//W3C//DTD SVG 1.1//EN" "http://www.w3.org/Graphics/SVG/1.1/DTD/svg11.dtd"><svg width="100%" height="100%" viewBox="0 0 4267 4267" version="1.1" xmlns="http://www.w3.org/2000/svg" xmlns:xlink="http://www.w3.org/1999/xlink" xml:space="preserve" xmlns:serif="http://www.serif.com/" style="fill-rule:evenodd;clip-rule:evenodd;stroke-linejoin:round;stroke-miterlimit:2;"><g><g><path d="M2779.373,1503.932c20.459,11.865 45.762,12.161 67.145,0.976c20.997,-11.291 39.408,-32.872 41.425,-56.869l-0.198,-998.68c0.218,-157.601 -84.285,-238.322 -213.65,-290.088c-300.565,-120.268 -921.33,-196.061 -1435.397,74.822c-78.665,41.454 -113.789,95.428 -126.68,173.252c-12.691,76.626 32.117,151.144 98.591,189.388l1568.764,907.199Z" style="fill:url(#_Linear1);"/><path d="M2887.944,916.465c-290.295,-279.105 -1082.944,-503.603 -1677.476,-319.642l1571.163,908.599c21.762,11.316 45.967,9.916 66.9,-1.643c22.135,-12.222 38.651,-34.707 39.417,-57.342l-0.003,-529.972Z" style="fill:url(#_Linear2);"/></g><g><path d="M1914.733,1261.843c20.511,-11.774 33.431,-33.531 34.451,-57.642c0.734,-23.829 -8.735,-50.569 -28.501,-64.327l-864.695,-499.665c-136.332,-79.068 -248.509,-46.31 -358.071,39.777c-254.553,200.017 -630.861,699.504 -653.636,1280.128c-3.483,88.851 25.664,146.273 86.588,196.384c59.987,49.338 146.926,47.843 213.305,9.434l1570.56,-904.089Z" style="fill:url(#_Linear3);"/><path d="M1460.48,873.823c-386.924,111.628 -977.999,685.495 -1116.299,1292.276l1572.972,-905.465c20.689,-13.177 31.591,-34.832 32.061,-58.74c0.497,-25.28 -10.702,-50.833 -29.916,-62.824l-458.819,-265.247Z" style="fill:url(#_Linear4);"/></g><g><path d="M1268.654,1883.242c0.059,-23.65 -12.323,-45.718 -32.694,-58.656c-20.269,-12.55 -48.162,-17.72 -69.959,-7.481l-865.07,499.016c-136.64,78.533 -164.36,192.06 -144.588,329.987c45.943,320.458 290.358,896.093 781.806,1206.129c75.206,47.442 139.508,50.911 213.367,23.205c72.721,-27.281 114.896,-103.32 114.823,-180.011l2.315,-1812.189Z" style="fill:url(#_Linear5);"/><path d="M705.493,2082.628c-96.789,390.9 104.657,1189.719 560.995,1612.881l2.329,-1814.967c-1.067,-24.505 -14.37,-44.774 -34.84,-57.136c-21.645,-13.071 -49.374,-16.148 -69.365,-5.504l-459.12,264.726Z" style="fill:url(#_Linear6);"/></g><g><path d="M1488.504,2762.305c-20.452,-11.876 -45.755,-12.187 -67.145,-1.014c-21.003,11.279 -39.427,32.849 -41.458,56.846l-0.373,998.681c-0.309,157.601 84.149,238.37 213.484,290.21c300.497,120.441 921.219,196.589 1435.441,-74.001c78.689,-41.409 113.844,-95.363 126.779,-173.179c12.735,-76.619 -32.03,-151.163 -98.483,-189.444l-1568.245,-908.098Z" style="fill:url(#_Linear7);"/><path d="M1379.597,3349.71c290.135,279.272 1082.656,504.223 1677.294,320.603l-1570.644,-909.499c-21.756,-11.328 -45.961,-9.942 -66.901,1.604c-22.142,12.21 -38.671,34.685 -39.449,57.32l-0.3,529.973Z" style="fill:url(#_Linear8);"/></g><g><path d="M2351.933,3006.975c-20.511,11.774 -33.431,33.531 -34.451,57.642c-0.734,23.829 8.735,50.569 28.501,64.327l864.695,499.665c136.332,79.068 248.509,46.31 358.071,-39.777c254.553,-200.017 630.861,-699.504 653.636,-1280.128c3.483,-88.851 -25.664,-146.273 -86.588,-196.384c-59.987,-49.338 -146.926,-47.843 -213.305,-9.434l-1570.56,904.089Z" style="fill:url(#_Linear9);"/><path d="M2806.187,3394.995c386.924,-111.628 977.999,-685.495 1116.299,-1292.276l-1572.972,905.465c-20.689,13.177 -31.591,34.832 -32.061,58.74c-0.497,25.28 10.702,50.833 29.916,62.824l458.819,265.247Z" style="fill:url(#_Linear10);"/></g><g><path d="M2998.983,2380.219c-0.059,23.65 12.323,45.718 32.694,58.656c20.269,12.55 48.162,17.72 69.959,7.481l865.07,-499.016c136.64,-78.533 164.36,-192.06 144.588,-329.987c-45.943,-320.458 -290.358,-896.093 -781.806,-1206.129c-75.206,-47.442 -139.508,-50.911 -213.367,-23.205c-72.721,27.281 -114.896,103.32 -114.823,180.011l-2.315,1812.189Z" style="fill:url(#_Linear11);"/><path d="M3562.145,2180.834c96.789,-390.9 -104.657,-1189.719 -560.995,-1612.881l-2.329,1814.967c1.067,24.505 14.37,44.774 34.84,57.136c21.645,13.071 49.374,16.148 69.365,5.504l459.12,-264.726Z" style="fill:url(#_Linear12);"/></g><g><ellipse cx="2133.333" cy="2133.333" rx="1133.334" ry="1133.333" style="fill:url(#_Radial13);"/></g></g><defs><linearGradient id="_Linear1" x1="0" y1="0" x2="1" y2="0" gradientUnits="userSpaceOnUse" gradientTransform="matrix(-1665.129623,-362.748081,362.748081,-1665.129623,2834.736082,763.448183)"><stop offset="0" style="stop-color:#f06030;stop-opacity:1"/><stop offset="1" style="stop-color:#f9cb0c;stop-opacity:1"/></linearGradient><linearGradient id="_Linear2" x1="0" y1="0" x2="1" y2="0" gradientUnits="userSpaceOnUse" gradientTransform="matrix(-1597.276782,-597.525612,597.525612,-1597.276782,2814.95806,1141.271834)"><stop offset="0" style="stop-color:#d71009;stop-opacity:1"/><stop offset="0.53" style="stop-color:#ec6219;stop-opacity:1"/><stop offset="0.8" style="stop-color:#f49d21;stop-opacity:1"/><stop offset="1" style="stop-color:#f7b824;stop-opacity:1"/></linearGradient><linearGradient id="_Linear3" x1="0" y1="0" x2="1" y2="0" gradientUnits="userSpaceOnUse" gradientTransform="matrix(-1147.437756,1260.013244,-1260.013244,-1147.437756,1301.376979,843.302819)"><stop offset="0" style="stop-color:#a0cf34;stop-opacity:1"/><stop offset="1" style="stop-color:#38d2cc;stop-opacity:1"/></linearGradient><linearGradient id="_Linear4" x1="0" y1="0" x2="1" y2="0" gradientUnits="userSpaceOnUse" gradientTransform="matrix(-1316.733664,1083.764915,-1083.764915,-1316.733664,1618.574798,1049.525078)"><stop offset="0" style="stop-color:#327901;stop-opacity:1"/><stop offset="0.45" style="stop-color:#379e23;stop-opacity:1"/><stop offset="0.73" style="stop-color:#17ad71;stop-opacity:1"/><stop offset="1" style="stop-color:#0bb38d;stop-opacity:1"/></linearGradient><linearGradient id="_Linear5" x1="0" y1="0" x2="1" y2="0" gradientUnits="userSpaceOnUse" gradientTransform="matrix(517.48548,1623.716818,-1623.716818,517.48548,599.509872,2205.154624)"><stop offset="0" style="stop-color:#5981cf;stop-opacity:1"/><stop offset="1" style="stop-color:#bd45d9;stop-opacity:1"/></linearGradient><linearGradient id="_Linear6" x1="0" y1="0" x2="1" y2="0" gradientUnits="userSpaceOnUse" gradientTransform="matrix(280.201994,1682.207336,-1682.207336,280.201994,936.702454,2033.564194)"><stop offset="0" style="stop-color:#001b94;stop-opacity:1"/><stop offset="0.5" style="stop-color:#720bb8;stop-opacity:1"/><stop offset="1" style="stop-color:#9307c2;stop-opacity:1"/></linearGradient><linearGradient id="_Linear7" x1="0" y1="0" x2="1" y2="0" gradientUnits="userSpaceOnUse" gradientTransform="matrix(1664.923123,363.701467,-363.701467,1664.923123,1432.717536,3502.75775)"><stop offset="0" style="stop-color:#a23ed2;stop-opacity:1"/><stop offset="0.23" style="stop-color:#755dce;stop-opacity:1"/><stop offset="0.44" style="stop-color:#6569cd;stop-opacity:1"/><stop offset="0.69" style="stop-color:#5d72d1;stop-opacity:1"/><stop offset="1" style="stop-color:#4b89db;stop-opacity:1"/></linearGradient><linearGradient id="_Linear8" x1="0" y1="0" x2="1" y2="0" gradientUnits="userSpaceOnUse" gradientTransform="matrix(1596.935847,598.440319,-598.440319,1596.935847,1452.711842,3124.94516)"><stop offset="0" style="stop-color:#60109b;stop-opacity:1"/><stop offset="1" style="stop-color:#1956c1;stop-opacity:1"/></linearGradient><linearGradient id="_Linear9" x1="0" y1="0" x2="1" y2="0" gradientUnits="userSpaceOnUse" gradientTransform="matrix(1147.437756,-1260.013244,1260.013244,1147.437756,2965.289626,3425.515337)"><stop offset="0" style="stop-color:#3693d3;stop-opacity:1"/><stop offset="1" style="stop-color:#79def0;stop-opacity:1"/></linearGradient><linearGradient id="_Linear10" x1="0" y1="0" x2="1" y2="0" gradientUnits="userSpaceOnUse" gradientTransform="matrix(1316.733664,-1083.764915,1083.764915,1316.733664,2648.091807,3219.293078)"><stop offset="0" style="stop-color:#0f3d95;stop-opacity:1"/><stop offset="0.51" style="stop-color:#0d87c2;stop-opacity:1"/><stop offset="0.8" style="stop-color:#08a7d9;stop-opacity:1"/><stop offset="1" style="stop-color:#049fc9;stop-opacity:1"/></linearGradient><linearGradient id="_Linear11" x1="0" y1="0" x2="1" y2="0" gradientUnits="userSpaceOnUse" gradientTransform="matrix(-517.48548,-1623.716818,1623.716818,-517.48548,3668.127637,2058.306724)"><stop offset="0" style="stop-color:#e353b2;stop-opacity:1"/><stop offset="0.5" style="stop-color:#f44789;stop-opacity:1"/><stop offset="1" style="stop-color:#f9527e;stop-opacity:1"/></linearGradient><linearGradient id="_Linear12" x1="0" y1="0" x2="1" y2="0" gradientUnits="userSpaceOnUse" gradientTransform="matrix(-280.201994,-1682.207336,1682.207336,-280.201994,3330.935055,2229.897154)"><stop offset="0" style="stop-color:#9b026f;stop-opacity:1"/><stop offset="0.66" style="stop-color:#e31c48;stop-opacity:1"/><stop offset="0.82" style="stop-color:#e8193a;stop-opacity:1"/><stop offset="1" style="stop-color:#f71114;stop-opacity:1"/></linearGradient><radialGradient id="_Radial13" cx="0" cy="0" r="1" gradientUnits="userSpaceOnUse" gradientTransform="matrix(2266.667498,0,0,2266.666712,2133.333302,2133.333333)"><stop offset="0" style="stop-color:#fff;stop-opacity:0"/><stop offset="0.5" style="stop-color:#fff;stop-opacity:0.1"/><stop offset="1" style="stop-color:#fff;stop-opacity:0"/></radialGradient></defs></svg>